<svg viewBox="-4 -4 37 37" fill="none" xmlns="http://www.w3.org/2000/svg">
<path fill-rule="evenodd" clip-rule="evenodd" d="M26.5001 6.86227L15.0931 0.161574C14.913 0.055725 14.7086 0 14.5006 0C14.2926 0 14.0882 0.055725 13.908 0.161574L2.49755 6.86227C2.34639 6.95136 2.22087 7.07929 2.13356 7.23325C2.04624 7.38722 2.00018 7.56182 2 7.73958V21.257C2 21.6195 2.19 21.9542 2.49874 22.1355L13.9069 28.8386C14.0871 28.9443 14.2914 29 14.4994 29C14.7074 29 14.9118 28.9443 15.092 28.8386L26.5013 22.1355C26.6528 22.0465 26.7787 21.9184 26.8662 21.7642C26.9538 21.61 26.9999 21.4351 27 21.257V7.74079C26.9997 7.56291 26.9535 7.38823 26.8659 7.23426C26.7784 7.08028 26.6526 6.95242 26.5013 6.86348L26.5001 6.86227ZM25.784 8.28337L14.7702 27.6954C14.6953 27.826 14.4994 27.7728 14.4994 27.6217V14.9104C14.4992 14.7854 14.4667 14.6627 14.4053 14.5545C14.3438 14.4464 14.2554 14.3565 14.1491 14.2941L3.33116 7.93776C3.2041 7.86284 3.25635 7.66224 3.40479 7.66224H25.4325C25.746 7.66224 25.9408 8.00785 25.784 8.28337Z" fill="currentColor"/>
</svg>
